<svg width="24" height="24" viewBox="0 0 24 24" fill="none" xmlns="http://www.w3.org/2000/svg">
<path d="M0.696411 5.01368C0.696411 2.80454 2.48727 1.01367 4.69641 1.01367L20.5331 1.01367C22.7422 1.01367 24.5331 2.80453 24.5331 5.01367L24.5331 20.8504C24.5331 23.0595 22.7422 24.8504 20.5331 24.8504L4.69642 24.8504C2.48728 24.8504 0.696411 23.0595 0.696411 20.8504L0.696411 5.01368Z" fill="black"/>
<mask id="mask0_12_113" style="mask-type:alpha" maskUnits="userSpaceOnUse" x="0" y="1" width="24" height="24">
<path d="M0.696411 5.01368C0.696411 2.80454 2.48727 1.01367 4.69641 1.01367L20.5331 1.01367C22.7422 1.01367 24.5331 2.80453 24.5331 5.01367L24.5331 20.8504C24.5331 23.0595 22.7422 24.8504 20.5331 24.8504L4.69642 24.8504C2.48728 24.8504 0.696411 23.0595 0.696411 20.8504L0.696411 5.01368Z" fill="black"/>
</mask>
<g mask="url(#mask0_12_113)">
<path d="M21.3588 -7.03784C25.5202 -24.2375 25.0911 -6.7206 22.1177 34.7348L13.6403 55.8455C12.5043 59.313 10.848 58.2642 10.202 56.6383C9.39459 54.6058 -0.584895 13.1758 0.259351 5.20219C1.1036 -2.77141 3.84692 14.0384 1.91561 0.146445C-0.0157022 -13.7455 9.1184 6.04186 12.0637 10.5425C14.42 14.1431 15.7188 3.88261 16.0736 -1.69769C16.4482 2.25547 18.0298 6.72188 21.3588 -7.03784Z" fill="url(#paint0_linear_12_113)"/>
<path d="M11.7234 -7.83015C11.5309 -24.6261 14.6591 -8.48792 20.5551 30.2019L13.8644 45.0289C9.61645 45.3288 10.853 58.0429 10.0347 56.7191C9.01191 55.0644 -1.17754 16.2408 -2.10195 8.72994C-3.02635 1.21909 2.4043 15.9043 -1.82518 3.68287C-6.05466 -8.5386 4.88338 7.24795 8.03925 10.6182C10.5639 13.3144 9.5379 3.59548 8.7093 -1.60102C9.77819 1.92124 11.8775 5.60658 11.7234 -7.83015Z" fill="url(#paint1_linear_12_113)"/>
<path d="M23.7813 -2.93165C25.8813 -19.4587 20.9481 -3.91355 10.7097 33.537C10.7097 33.537 8.81092 58.3484 10.8497 55.6211C12.8885 52.8938 10.67 57.943 12.8892 56.819C14.6134 55.9457 33.8239 22.2523 35.5933 14.957C37.3628 7.66165 30.3141 21.5135 35.8929 9.95263C41.4717 -1.60824 28.8426 12.7025 25.3334 15.6644C22.5261 18.0339 24.6473 8.5745 26.0588 3.54862C24.5996 6.89755 22.1012 10.29 23.7813 -2.93165Z" fill="#00A3FF"/>
<path d="M15.6419 7.59084L21.376 7.85913C21.376 7.85913 22.402 6.82325 22.6 6.32363C22.7981 5.82401 22.7254 4.86122 22.7254 4.86122C20.904 4.57193 16.8328 3.73718 15.1194 2.71246C13.406 1.68775 8.68253 2.92147 6.53499 3.66642L6.51454 6.49911L12.9603 7.50911C12.9603 7.50911 11.7046 9.95801 11.1251 11.5863C9.59416 15.8878 9.71438 23.0822 9.71438 23.0822C9.71438 23.0822 11.3352 24.1666 12.4904 24.1141C13.5275 24.067 14.5209 23.0885 14.5209 23.0885L15.6419 7.59084Z" fill="white"/>
</g>
<defs>
<linearGradient id="paint0_linear_12_113" x1="25.3736" y1="24.7964" x2="-4.5067" y2="15.0076" gradientUnits="userSpaceOnUse">
<stop stop-color="#622BBD"/>
<stop offset="1" stop-color="#2D1457"/>
</linearGradient>
<linearGradient id="paint1_linear_12_113" x1="10.5038" y1="-14.5346" x2="7.91737" y2="32.6324" gradientUnits="userSpaceOnUse">
<stop stop-color="#CC00FF"/>
<stop offset="1" stop-color="#28005A"/>
</linearGradient>
</defs>
</svg>
